<?xml version="1.0" encoding="UTF-8"?>
<svg width="754.186px" height="656.616721px" viewBox="0 0 754.186 656.616721" version="1.1" xmlns="http://www.w3.org/2000/svg" xmlns:xlink="http://www.w3.org/1999/xlink">
    <title>Ateker Logo Icon</title>
    <defs>
        <linearGradient x1="50%" y1="18.1984985%" x2="100%" y2="81.8015015%" id="linearGradient-1">
            <stop stop-color="#009FFD" offset="0%"></stop>
            <stop stop-color="#346AAB" offset="100%"></stop>
        </linearGradient>
        <linearGradient x1="64.5040771%" y1="17.9135071%" x2="0%" y2="82.0864929%" id="linearGradient-2">
            <stop stop-color="#FFDD00" offset="0%"></stop>
            <stop stop-color="#F7B500" offset="100%"></stop>
        </linearGradient>
        <linearGradient x1="33.2135945%" y1="0%" x2="66.7864055%" y2="100%" id="linearGradient-3">
            <stop stop-color="#FF4E00" offset="0%"></stop>
            <stop stop-color="#FF833D" offset="100%"></stop>
        </linearGradient>
        <linearGradient x1="65.8647145%" y1="0%" x2="24.8989757%" y2="100%" id="linearGradient-4">
            <stop stop-color="#53D5BC" offset="0%"></stop>
            <stop stop-color="#0BAB64" offset="100%"></stop>
        </linearGradient>
    </defs>
    <g id="Website--(UG)" stroke="none" stroke-width="1" fill="none" fill-rule="evenodd">
        <g id="Ateker-Logo-Icon">
            <polyline id="Fill-5" fill="url(#linearGradient-1)" points="662.04 655.556721 517.699 389.716721 328.692 389.706721 662.04 655.556721"></polyline>
            <polygon id="Fill-6" fill="url(#linearGradient-2)" points="236.71 389.706721 425.352 389.696721 92.152 656.616721"></polygon>
            <path d="M374.343,125.676721 L662.04,655.556721 L754.186,484.856721 L530.032,64.2367214 C514.882,33.0317214 500.315,-2.1592786 454.817,0.103721399 C444.227,5.0757214 434.718,13.1287214 427.038,28.6227214 L374.343,125.676721" id="Fill-7" fill="url(#linearGradient-3)"></path>
            <path d="M431.644,31.2137214 L92.146,656.506721 L0,485.796721 L224.155,65.1767214 C239.414,33.7467214 253.538,0.602721399 299.708,0.510721399 L465.103,0.0767213995 C452.748,4.6117214 440.535,13.2787214 431.644,31.2137214 Z" id="Fill-8" fill="url(#linearGradient-4)"></path>
        </g>
    </g>
</svg>